<svg xmlns="http://www.w3.org/2000/svg" xmlns:xlink="http://www.w3.org/1999/xlink" width="500" zoomAndPan="magnify" viewBox="0 0 375 374.999991" height="500" preserveAspectRatio="xMidYMid meet" version="1.0"><defs><g/><clipPath id="24da034647"><path d="M 86.199219 87 L 252 87 L 252 230 L 86.199219 230 Z M 86.199219 87 " clip-rule="nonzero"/></clipPath><clipPath id="f48e849f07"><path d="M 120 54.714844 L 288 54.714844 L 288 262.464844 L 120 262.464844 Z M 120 54.714844 " clip-rule="nonzero"/></clipPath></defs><g clip-path="url(#24da034647)"><path fill="#ffffff" d="M 229.628906 161.179688 C 228.335938 187.332031 205.773438 207.410156 179.589844 207.410156 L 153.667969 207.410156 L 153.667969 229.53125 L 179.265625 229.53125 C 217.605469 229.53125 250.304688 199.773438 251.753906 161.457031 C 253.277344 121.179688 220.953125 87.925781 181.003906 87.925781 L 86.253906 87.925781 L 86.253906 229.53125 C 98.46875 229.53125 108.371094 219.625 108.371094 207.410156 L 108.371094 110.042969 L 181.003906 110.042969 C 208.660156 110.042969 231.007812 133.226562 229.628906 161.179688 " fill-opacity="1" fill-rule="nonzero"/></g><g clip-path="url(#f48e849f07)"><path fill="#ffffff" d="M 180.808594 54.707031 L 120.492188 54.707031 C 120.492188 66.921875 130.394531 76.824219 142.609375 76.824219 L 181.007812 76.824219 C 225.359375 76.824219 263.1875 111.242188 264.863281 155.5625 C 266.628906 202.160156 229.230469 240.632812 183.019531 240.632812 L 142.609375 240.632812 L 142.609375 121.40625 L 120.492188 121.40625 L 120.492188 262.75 L 183.019531 262.75 C 241.425781 262.75 288.742188 214.363281 286.996094 155.578125 C 285.3125 98.996094 237.410156 54.707031 180.808594 54.707031 " fill-opacity="1" fill-rule="nonzero"/></g><g fill="#ffffff" fill-opacity="1"><g transform="translate(86.198077, 313.100619)"><g><path d="M 8.484375 -18.3125 C 10.410156 -18.3125 12.09375 -17.925781 13.53125 -17.15625 C 14.976562 -16.394531 16.097656 -15.320312 16.890625 -13.9375 C 17.679688 -12.5625 18.078125 -10.96875 18.078125 -9.15625 C 18.078125 -7.363281 17.679688 -5.769531 16.890625 -4.375 C 16.097656 -2.988281 14.972656 -1.910156 13.515625 -1.140625 C 12.066406 -0.378906 10.390625 0 8.484375 0 L 1.625 0 L 1.625 -18.3125 Z M 8.1875 -3.859375 C 9.875 -3.859375 11.1875 -4.316406 12.125 -5.234375 C 13.070312 -6.160156 13.546875 -7.46875 13.546875 -9.15625 C 13.546875 -10.84375 13.070312 -12.15625 12.125 -13.09375 C 11.1875 -14.039062 9.875 -14.515625 8.1875 -14.515625 L 6.078125 -14.515625 L 6.078125 -3.859375 Z M 8.1875 -3.859375 "/></g></g></g><g fill="#ffffff" fill-opacity="1"><g transform="translate(105.170488, 313.100619)"><g><path d="M 13.015625 -3.234375 L 6.1875 -3.234375 L 5.09375 0 L 0.421875 0 L 7.046875 -18.3125 L 12.21875 -18.3125 L 18.84375 0 L 14.109375 0 Z M 11.875 -6.6875 L 9.609375 -13.390625 L 7.359375 -6.6875 Z M 11.875 -6.6875 "/></g></g></g><g fill="#ffffff" fill-opacity="1"><g transform="translate(124.403854, 313.100619)"><g><path d="M 12.703125 -9.390625 C 13.765625 -9.160156 14.617188 -8.632812 15.265625 -7.8125 C 15.910156 -6.988281 16.234375 -6.046875 16.234375 -4.984375 C 16.234375 -3.453125 15.695312 -2.238281 14.625 -1.34375 C 13.550781 -0.445312 12.0625 0 10.15625 0 L 1.625 0 L 1.625 -18.3125 L 9.859375 -18.3125 C 11.722656 -18.3125 13.179688 -17.882812 14.234375 -17.03125 C 15.285156 -16.1875 15.8125 -15.03125 15.8125 -13.5625 C 15.8125 -12.488281 15.523438 -11.59375 14.953125 -10.875 C 14.390625 -10.164062 13.640625 -9.671875 12.703125 -9.390625 Z M 6.078125 -10.90625 L 9 -10.90625 C 9.726562 -10.90625 10.285156 -11.066406 10.671875 -11.390625 C 11.066406 -11.710938 11.265625 -12.1875 11.265625 -12.8125 C 11.265625 -13.4375 11.066406 -13.914062 10.671875 -14.25 C 10.285156 -14.582031 9.726562 -14.75 9 -14.75 L 6.078125 -14.75 Z M 9.375 -3.59375 C 10.113281 -3.59375 10.6875 -3.765625 11.09375 -4.109375 C 11.507812 -4.453125 11.71875 -4.941406 11.71875 -5.578125 C 11.71875 -6.222656 11.503906 -6.726562 11.078125 -7.09375 C 10.648438 -7.457031 10.0625 -7.640625 9.3125 -7.640625 L 6.078125 -7.640625 L 6.078125 -3.59375 Z M 9.375 -3.59375 "/></g></g></g><g fill="#ffffff" fill-opacity="1"><g transform="translate(141.601681, 313.100619)"><g><path d="M 13.015625 -3.234375 L 6.1875 -3.234375 L 5.09375 0 L 0.421875 0 L 7.046875 -18.3125 L 12.21875 -18.3125 L 18.84375 0 L 14.109375 0 Z M 11.875 -6.6875 L 9.609375 -13.390625 L 7.359375 -6.6875 Z M 11.875 -6.6875 "/></g></g></g><g fill="#ffffff" fill-opacity="1"><g transform="translate(160.835047, 313.100619)"><g><path d="M 13.015625 -3.234375 L 6.1875 -3.234375 L 5.09375 0 L 0.421875 0 L 7.046875 -18.3125 L 12.21875 -18.3125 L 18.84375 0 L 14.109375 0 Z M 11.875 -6.6875 L 9.609375 -13.390625 L 7.359375 -6.6875 Z M 11.875 -6.6875 "/></g></g></g><g fill="#ffffff" fill-opacity="1"><g transform="translate(180.068414, 313.100619)"><g><path d="M 3.703125 0.203125 C 2.921875 0.203125 2.28125 -0.0234375 1.78125 -0.484375 C 1.289062 -0.941406 1.046875 -1.507812 1.046875 -2.1875 C 1.046875 -2.882812 1.289062 -3.46875 1.78125 -3.9375 C 2.28125 -4.40625 2.921875 -4.640625 3.703125 -4.640625 C 4.472656 -4.640625 5.101562 -4.40625 5.59375 -3.9375 C 6.09375 -3.46875 6.34375 -2.882812 6.34375 -2.1875 C 6.34375 -1.507812 6.09375 -0.941406 5.59375 -0.484375 C 5.101562 -0.0234375 4.472656 0.203125 3.703125 0.203125 Z M 3.703125 0.203125 "/></g></g></g><g fill="#ffffff" fill-opacity="1"><g transform="translate(187.427725, 313.100619)"><g><path d="M 8.484375 -18.3125 C 10.410156 -18.3125 12.09375 -17.925781 13.53125 -17.15625 C 14.976562 -16.394531 16.097656 -15.320312 16.890625 -13.9375 C 17.679688 -12.5625 18.078125 -10.96875 18.078125 -9.15625 C 18.078125 -7.363281 17.679688 -5.769531 16.890625 -4.375 C 16.097656 -2.988281 14.972656 -1.910156 13.515625 -1.140625 C 12.066406 -0.378906 10.390625 0 8.484375 0 L 1.625 0 L 1.625 -18.3125 Z M 8.1875 -3.859375 C 9.875 -3.859375 11.1875 -4.316406 12.125 -5.234375 C 13.070312 -6.160156 13.546875 -7.46875 13.546875 -9.15625 C 13.546875 -10.84375 13.070312 -12.15625 12.125 -13.09375 C 11.1875 -14.039062 9.875 -14.515625 8.1875 -14.515625 L 6.078125 -14.515625 L 6.078125 -3.859375 Z M 8.1875 -3.859375 "/></g></g></g><g fill="#ffffff" fill-opacity="1"><g transform="translate(206.400135, 313.100619)"><g><path d="M 6.078125 -18.3125 L 6.078125 0 L 1.625 0 L 1.625 -18.3125 Z M 6.078125 -18.3125 "/></g></g></g><g fill="#ffffff" fill-opacity="1"><g transform="translate(214.098706, 313.100619)"><g><path d="M 13.78125 -12.53125 C 13.445312 -13.132812 12.96875 -13.597656 12.34375 -13.921875 C 11.726562 -14.242188 11.003906 -14.40625 10.171875 -14.40625 C 8.734375 -14.40625 7.578125 -13.929688 6.703125 -12.984375 C 5.835938 -12.035156 5.40625 -10.769531 5.40625 -9.1875 C 5.40625 -7.5 5.859375 -6.179688 6.765625 -5.234375 C 7.679688 -4.285156 8.941406 -3.8125 10.546875 -3.8125 C 11.640625 -3.8125 12.5625 -4.085938 13.3125 -4.640625 C 14.070312 -5.203125 14.628906 -6.003906 14.984375 -7.046875 L 9.3125 -7.046875 L 9.3125 -10.328125 L 19.015625 -10.328125 L 19.015625 -6.1875 C 18.691406 -5.070312 18.132812 -4.035156 17.34375 -3.078125 C 16.550781 -2.117188 15.546875 -1.34375 14.328125 -0.75 C 13.109375 -0.164062 11.734375 0.125 10.203125 0.125 C 8.390625 0.125 6.773438 -0.269531 5.359375 -1.0625 C 3.941406 -1.851562 2.835938 -2.953125 2.046875 -4.359375 C 1.253906 -5.765625 0.859375 -7.375 0.859375 -9.1875 C 0.859375 -11 1.253906 -12.613281 2.046875 -14.03125 C 2.835938 -15.445312 3.9375 -16.550781 5.34375 -17.34375 C 6.757812 -18.132812 8.367188 -18.53125 10.171875 -18.53125 C 12.367188 -18.53125 14.21875 -18 15.71875 -16.9375 C 17.226562 -15.875 18.222656 -14.40625 18.703125 -12.53125 Z M 13.78125 -12.53125 "/></g></g></g><g fill="#ffffff" fill-opacity="1"><g transform="translate(233.984491, 313.100619)"><g><path d="M 6.078125 -18.3125 L 6.078125 0 L 1.625 0 L 1.625 -18.3125 Z M 6.078125 -18.3125 "/></g></g></g><g fill="#ffffff" fill-opacity="1"><g transform="translate(241.683061, 313.100619)"><g><path d="M 14.796875 -18.3125 L 14.796875 -14.75 L 9.9375 -14.75 L 9.9375 0 L 5.484375 0 L 5.484375 -14.75 L 0.625 -14.75 L 0.625 -18.3125 Z M 14.796875 -18.3125 "/></g></g></g><g fill="#ffffff" fill-opacity="1"><g transform="translate(257.106285, 313.100619)"><g><path d="M 13.015625 -3.234375 L 6.1875 -3.234375 L 5.09375 0 L 0.421875 0 L 7.046875 -18.3125 L 12.21875 -18.3125 L 18.84375 0 L 14.109375 0 Z M 11.875 -6.6875 L 9.609375 -13.390625 L 7.359375 -6.6875 Z M 11.875 -6.6875 "/></g></g></g><g fill="#ffffff" fill-opacity="1"><g transform="translate(276.339651, 313.100619)"><g><path d="M 6.078125 -3.4375 L 11.921875 -3.4375 L 11.921875 0 L 1.625 0 L 1.625 -18.3125 L 6.078125 -18.3125 Z M 6.078125 -3.4375 "/></g></g></g></svg>